<?xml version="1.0" encoding="UTF-8" standalone="no"?>
<svg
   xmlns:dc="http://purl.org/dc/elements/1.1/"
   xmlns:cc="http://creativecommons.org/ns#"
   xmlns:rdf="http://www.w3.org/1999/02/22-rdf-syntax-ns#"
   xmlns:svg="http://www.w3.org/2000/svg"
   xmlns="http://www.w3.org/2000/svg"
   viewBox="0 0 77.850946 27.812478"
   height="27.812477"
   width="77.850945"
   xml:space="preserve"
   version="1.1"
   id="svg2"><metadata
     id="metadata8"><rdf:RDF><cc:Work
         rdf:about=""><dc:format>image/svg+xml</dc:format><dc:type
           rdf:resource="http://purl.org/dc/dcmitype/StillImage" /><dc:title></dc:title></cc:Work></rdf:RDF></metadata><defs
     id="defs6"><clipPath
       id="clipPath24"
       clipPathUnits="userSpaceOnUse"><path
         id="path26"
         d="m 0,192.73 124.81,0 L 124.81,0 0,0 0,192.73 Z" /></clipPath></defs><g
     transform="matrix(1.25,0,0,-1.25,-0.711,241.12311)"
     id="g10"><g
       transform="translate(1.0688,192.3985)"
       id="g12"><path
         id="path14"
         style="fill:#195297;fill-opacity:1;fill-rule:nonzero;stroke:none"
         d="M 0,0 61.281,-10.854 0,-21.25 0,0 Z" /></g><g
       transform="translate(1.0688,192.3985)"
       id="g16"><path
         id="path18"
         style="fill:none;stroke:#ffffff;stroke-width:1;stroke-linecap:round;stroke-linejoin:round;stroke-miterlimit:10;stroke-dasharray:none;stroke-opacity:1"
         d="M 0,0 61.281,-10.854 0,-21.25 0,0 Z" /></g><g
       transform="translate(0,1.6)"
       id="g20"><g
         transform="translate(-38.4,44.8)"
         clip-path="url(#clipPath24)"
         id="g22"><g
           transform="translate(48.4375,142.3735)"
           id="g28"><path
             id="path30"
             style="fill:#ffffff;fill-opacity:1;fill-rule:nonzero;stroke:none"
             d="m 0,0 c -3.992,0 -7.229,-3.237 -7.229,-7.229 0,-3.993 3.237,-7.229 7.229,-7.229 3.993,0 7.229,3.236 7.229,7.229 C 7.229,-3.237 3.993,0 0,0 m 0,-0.7 c 3.601,0 6.529,-2.929 6.529,-6.529 0,-3.601 -2.928,-6.529 -6.529,-6.529 -3.6,0 -6.529,2.928 -6.529,6.529 0,3.6 2.929,6.529 6.529,6.529" /></g><g
           transform="translate(43.4063,132.54)"
           id="g32"><path
             id="path34"
             style="fill:#ffffff;fill-opacity:1;fill-rule:nonzero;stroke:none"
             d="M 0,0 5.26,7.037 3.885,0 0,0 Z" /></g><g
           transform="translate(48.4375,131.8892)"
           id="g36"><path
             id="path38"
             style="fill:#ffffff;fill-opacity:1;fill-rule:nonzero;stroke:none"
             d="m 0,0 4.625,0 c 0,0 1.812,5.172 -2.312,8.531 C 2.313,8.531 2.75,4.266 0,0" /></g></g></g></g></svg>